<svg class="img-fluid" xmlns="http://www.w3.org/2000/svg" style="transform:matrix(4.13578,0,0,4.13578,-15.2001,147.2);transform-origin:50% 50%;cursor:move;max-height:none;transition:none 0s ease 0s" width="84" height="84" viewBox="0 0 84 84">
  <g style="transform:none"/>
  <path d="M633 820c-86-52-92-144-14-232 42-48 71-114 71-163s-29-115-71-163c-64-73-72-143-22-202 65-78 189-57 229 38 21 51 11 91-37 149-63 76-82 124-77 193 3 43 11 68 32 97 15 21 43 60 61 87 40 56 43 81 15 137-38 73-121 100-187 59zM88 794c-31-16-58-61-58-96 0-38 35-85 74-98 74-24 146 27 146 102 0 32-7 47-34 74-38 38-81 44-128 18zm-8-531c-93-49-95-182-2-236 116-68 252 67 182 180-39 65-117 89-180 56z" fill="#080808" style="transform:none"/>
  <g fill="#101010" style="transform:none"/>
  <g fill="#191919" style="transform:none"/>
  <g fill="#212121" style="transform:none"/>
  <g fill="#292929" style="transform:none"/>
  <g fill="#313131" style="transform:none"/>
  <g fill="#3A3A3A" style="transform:none"/>
  <g fill="#424242" style="transform:none"/>
  <g fill="#4A4A4A" style="transform:none"/>
  <g fill="#525252" style="transform:none"/>
  <g fill="#5A5A5A" style="transform:none"/>
  <g fill="#636363" style="transform:none"/>
  <g fill="#6B6B6B" style="transform:none"/>
  <g fill="#737373" style="transform:none"/>
  <g fill="#7B7B7B" style="transform:none"/>
  <g fill="#848484" style="transform:none"/>
  <g fill="#8C8C8C" style="transform:none"/>
  <g fill="#949494" style="transform:none"/>
  <g fill="#9C9C9C" style="transform:none"/>
  <g fill="#A5A5A5" style="transform:none"/>
  <g fill="#ADADAD" style="transform:none"/>
  <g fill="#B5B5B5" style="transform:none"/>
  <g fill="#BDBDBD" style="transform:none"/>
  <g fill="#C5C5C5" style="transform:none"/>
  <g fill="#CECECE" style="transform:none"/>
  <g fill="#D6D6D6" style="transform:none"/>
  <g fill="#E6E6E6" style="transform:none"/>
  <g fill="#EFEFEF" style="transform:none"/>
  <g fill="#F7F7F7" style="transform:none"/>
  <g fill="#FFF" style="transform:none"/>
</svg>
